<?xml version="1.0" encoding="UTF-8" standalone="no"?>
<!-- Created with Inkscape (http://www.inkscape.org/) -->

<svg
   xmlns:dc="http://purl.org/dc/elements/1.1/"
   xmlns:cc="http://creativecommons.org/ns#"
   xmlns:rdf="http://www.w3.org/1999/02/22-rdf-syntax-ns#"
   xmlns:svg="http://www.w3.org/2000/svg"
   xmlns="http://www.w3.org/2000/svg"
   xmlns:sodipodi="http://sodipodi.sourceforge.net/DTD/sodipodi-0.dtd"
   xmlns:inkscape="http://www.inkscape.org/namespaces/inkscape"
   version="1.1"
   id="svg2"
   xml:space="preserve"
   width="566.93335"
   height="566.93335"
   viewBox="0 0 566.93335 566.93335"
   sodipodi:docname="velo.svg"
   inkscape:version="0.92.5 (2060ec1f9f, 2020-04-08)"><metadata
     id="metadata8"><rdf:RDF><cc:Work
         rdf:about=""><dc:format>image/svg+xml</dc:format><dc:type
           rdf:resource="http://purl.org/dc/dcmitype/StillImage" /><dc:title></dc:title></cc:Work></rdf:RDF></metadata><defs
     id="defs6" /><sodipodi:namedview
     pagecolor="#ffffff"
     bordercolor="#666666"
     borderopacity="1"
     objecttolerance="10"
     gridtolerance="10"
     guidetolerance="10"
     inkscape:pageopacity="0"
     inkscape:pageshadow="2"
     inkscape:window-width="1920"
     inkscape:window-height="1016"
     id="namedview4"
     showgrid="false"
     inkscape:zoom="0.83254936"
     inkscape:cx="80.835502"
     inkscape:cy="222.75272"
     inkscape:window-x="0"
     inkscape:window-y="27"
     inkscape:window-maximized="1"
     inkscape:current-layer="svg2" /><g
     id="g10"
     inkscape:groupmode="layer"
     inkscape:label="ink_ext_XXXXXX"
     transform="matrix(1.3333333,0,0,-1.3333333,0,566.93333)"><g
       id="g12"
       transform="scale(0.1)"><path
         d="M 4251.97,0 H 0 V 4251.97 H 4251.97 V 0"
         style="fill:#f4f4f4;fill-opacity:1;fill-rule:nonzero;stroke:none"
         id="path14"
         inkscape:connector-curvature="0" /><path
         d="m 2095.24,3678.51 -0.84,-0.42 c -0.43,0 -0.82,2.51 -1.17,7.52 -0.35,5.01 -0.52,11.75 -0.52,20.22 0,1.7 0.78,3.92 2.32,6.67 1.56,2.76 4.17,5.69 7.84,8.79 3.66,3.11 8.51,6.21 14.5,9.32 6,3.1 13.56,5.93 22.66,8.47 9.11,2.54 19.84,4.59 32.2,6.14 12.35,1.55 26.65,2.33 42.88,2.33 13.98,0 24.88,-0.67 32.71,-2.01 7.84,-1.34 13.73,-3.11 17.7,-5.29 3.94,-2.2 6.38,-4.73 7.3,-7.62 0.92,-2.9 1.37,-5.83 1.37,-8.79 0,-3.11 -0.35,-6.15 -1.06,-9.11 -0.7,-2.96 -2.53,-5.61 -5.5,-7.94 -2.97,-2.34 -7.42,-4.2 -13.34,-5.61 -5.93,-1.42 -14.05,-2.13 -24.36,-2.13 -4.66,0 -9.31,0.22 -13.97,0.65 -3.96,-15.4 -7.42,-29.16 -10.38,-41.31 -2.96,-12.14 -5.65,-23.32 -8.05,-33.56 -2.4,-10.24 -4.59,-19.87 -6.56,-28.9 -1.98,-9.04 -3.99,-18.15 -6.04,-27.32 -2.05,-9.18 -4.2,-18.79 -6.46,-28.8 -2.26,-10.03 -4.84,-21.11 -7.73,-33.26 -2.9,-12.14 -6.28,-25.72 -10.16,-40.76 -3.89,-15.04 -8.36,-32.15 -13.45,-51.35 0.85,0 2.78,-0.15 5.83,-0.43 3.03,-0.28 6.52,-0.78 10.48,-1.48 3.95,-0.71 8.15,-1.62 12.6,-2.75 4.44,-1.14 8.5,-2.54 12.17,-4.24 3.67,-1.69 6.7,-3.67 9.1,-5.93 2.41,-2.26 3.62,-4.87 3.62,-7.83 0,-5.93 -5.09,-11.72 -15.26,-17.37 -2.96,0 -7.73,0 -14.29,0 -6.57,0 -14.3,0 -23.19,0 -8.89,0 -18.49,0 -28.81,0 -10.3,0 -20.6,-0.03 -30.91,-0.11 -10.31,-0.07 -20.3,-0.07 -29.96,0 -9.67,0.08 -18.19,0.15 -25.52,0.22 -7.35,0.07 -13.23,0.18 -17.69,0.32 -4.45,0.14 -6.67,0.35 -6.67,0.63 0,0.42 0.68,1.1 2.01,2.01 1.34,0.92 2.87,2.2 4.56,3.82 1.68,1.62 3.32,3.63 4.87,6.03 1.55,2.4 2.54,5.36 2.97,8.89 0.27,2.41 2.67,4.69 7.19,6.89 4.53,2.18 9.96,4.16 16.3,5.93 6.36,1.76 13.11,3.21 20.24,4.34 7.13,1.12 13.44,1.91 18.94,2.32 4.38,18.5 8.79,36.99 13.25,55.5 4.44,18.48 8.81,36.59 13.12,54.31 4.31,17.72 8.55,34.87 12.71,51.46 4.17,16.59 8.23,32.15 12.17,46.69 3.96,14.54 7.77,27.89 11.45,40.04 3.66,12.13 7.12,22.72 10.37,31.76 -5.23,-0.57 -9.82,-1.14 -13.77,-1.7 -3.95,-0.56 -7.48,-1.2 -10.59,-1.9 -3.1,-0.71 -6.03,-1.49 -8.79,-2.33 -2.75,-0.85 -5.6,-1.8 -8.57,-2.86 -2.97,-1.06 -6.17,-2.26 -9.64,-3.6 -3.46,-1.34 -7.51,-2.86 -12.18,-4.56"
         style="fill:#d42641;fill-opacity:1;fill-rule:nonzero;stroke:none"
         id="path16"
         inkscape:connector-curvature="0" /><path
         d="m 1841.88,3086.97 c 6.36,11.29 13.1,24 20.23,38.12 7.13,14.11 13.88,28.66 20.22,43.62 6.36,14.96 11.87,29.9 16.53,44.79 4.66,14.9 7.61,28.77 8.88,41.61 0,4.1 -0.09,7.59 -0.31,10.49 -0.21,2.89 -0.89,4.34 -2.01,4.34 -4.1,0 -8.51,-2.65 -13.23,-7.95 -4.74,-5.29 -9.47,-12.46 -14.19,-21.49 -4.74,-9.03 -9.25,-19.56 -13.56,-31.55 -4.3,-12 -8.15,-24.78 -11.54,-38.33 -3.39,-13.56 -6.07,-27.5 -8.05,-41.83 -1.98,-14.33 -2.97,-28.27 -2.97,-41.82 z m -0.2,-169.42 c -7.63,0 -14.73,3.35 -21.29,10.06 -6.56,6.7 -12.28,15.7 -17.15,27 -4.87,11.3 -8.68,24.39 -11.43,39.28 -2.76,14.9 -4.13,30.53 -4.13,46.91 0,12.57 0.91,26.22 2.75,40.98 1.83,14.75 4.51,29.97 8.05,45.63 3.52,15.68 7.72,31.42 12.59,47.23 4.88,15.81 10.39,30.99 16.52,45.53 6.14,14.54 12.81,28.13 20.02,40.77 7.19,12.63 14.74,23.64 22.65,33.03 7.91,9.39 16.17,16.77 24.78,22.14 8.61,5.36 17.36,8.04 26.26,8.04 6.07,0 11.08,-1.37 15.04,-4.13 3.94,-2.75 7.06,-6.39 9.31,-10.91 2.26,-4.51 3.85,-9.63 4.77,-15.35 0.92,-5.72 1.38,-11.54 1.38,-17.47 0,-13.27 -1.53,-26.79 -4.55,-40.55 -3.04,-13.77 -7.13,-27.61 -12.29,-41.51 -5.16,-13.91 -11.12,-27.85 -17.89,-41.83 -6.78,-13.97 -13.84,-27.84 -21.18,-41.61 -7.35,-13.76 -14.72,-27.32 -22.13,-40.66 -7.41,-13.34 -14.37,-26.36 -20.86,-39.07 -0.71,-1.41 -1.45,-3.25 -2.23,-5.51 -0.77,-2.26 -1.51,-4.69 -2.22,-7.3 -0.71,-2.62 -1.41,-5.4 -2.11,-8.36 -0.71,-2.97 -1.27,-5.87 -1.7,-8.69 v -2.97 c 0,-3.67 0.39,-7.23 1.16,-10.69 0.78,-3.46 1.73,-6.56 2.86,-9.32 1.13,-2.75 2.34,-4.94 3.61,-6.56 1.27,-1.63 2.47,-2.44 3.59,-2.44 2.68,0 5.75,0.57 9.22,1.7 3.46,1.13 7.13,2.65 11,4.55 3.89,1.91 7.88,4.09 11.98,6.56 4.09,2.47 8.04,4.98 11.85,7.52 8.9,5.93 18.22,12.78 27.96,20.54 l 17.36,-44.47 c -12.56,-9.04 -24.99,-17.08 -37.27,-24.14 -5.37,-2.96 -10.91,-5.9 -16.62,-8.79 -5.72,-2.89 -11.48,-5.47 -17.27,-7.73 -5.79,-2.26 -11.43,-4.06 -16.93,-5.4 -5.51,-1.34 -10.67,-2.01 -15.46,-2.01"
         style="fill:#d42641;fill-opacity:1;fill-rule:nonzero;stroke:none"
         id="path18"
         inkscape:connector-curvature="0" /><path
         d="m 1980.81,2958.21 c 4.8,0 9.45,2.44 13.98,7.3 4.52,4.88 8.46,11.02 11.85,18.43 3.39,7.41 6.11,15.6 8.15,24.57 2.06,8.96 3.08,17.54 3.08,25.73 0,6.49 -0.5,12.52 -1.48,18.1 -0.99,5.58 -2.47,10.41 -4.45,14.51 -1.98,4.09 -4.52,7.34 -7.62,9.74 -3.11,2.4 -6.86,3.6 -11.22,3.6 -5.8,0 -11.3,-2.47 -16.53,-7.41 -5.22,-4.95 -9.81,-11.26 -13.76,-18.95 -3.95,-7.7 -7.07,-16.21 -9.32,-25.52 -2.26,-9.32 -3.39,-18.29 -3.39,-26.9 0,-5.93 0.56,-11.51 1.7,-16.73 1.12,-5.22 2.89,-9.78 5.29,-13.66 2.4,-3.88 5.58,-6.98 9.53,-9.31 3.95,-2.33 8.68,-3.5 14.19,-3.5 z m 65.44,117.96 c 4.09,-8.19 7.16,-16.84 9.21,-25.94 2.04,-9.11 3.07,-17.83 3.07,-26.16 0,-8.33 -0.92,-16.73 -2.76,-25.2 -1.83,-8.47 -4.48,-16.66 -7.94,-24.57 -3.45,-7.9 -7.69,-15.31 -12.7,-22.23 -5.01,-6.92 -10.74,-12.92 -17.15,-18 -6.43,-5.08 -13.45,-9.11 -21.08,-12.07 -7.62,-2.96 -15.74,-4.45 -24.35,-4.45 -12.42,0 -23.05,2.72 -31.88,8.16 -8.81,5.43 -16.05,12.52 -21.7,21.28 -5.65,8.75 -9.78,18.63 -12.39,29.64 -2.62,11.02 -3.91,22.17 -3.91,33.46 0,15.53 2.32,30.04 6.98,43.53 4.67,13.48 11.34,25.2 20.02,35.15 8.68,9.95 19.3,17.78 31.86,23.5 12.57,5.72 26.69,8.58 42.36,8.58 13.41,0 25.97,-2.08 37.69,-6.25 11.72,-4.16 22.7,-9.74 32.94,-16.73 10.24,-6.98 19.76,-15 28.59,-24.03 8.81,-9.04 17.05,-18.35 24.66,-27.95 l -4.02,-29.87 c -3.81,5.09 -8.96,10.59 -15.46,16.52 -6.49,5.93 -13.38,11.72 -20.64,17.37 -7.28,5.64 -14.44,10.98 -21.5,15.99 -7.06,5.01 -13.13,9.21 -18.21,12.6 l -1.69,-2.33"
         style="fill:#d42641;fill-opacity:1;fill-rule:nonzero;stroke:none"
         id="path20"
         inkscape:connector-curvature="0" /><path
         d="m 2101.09,2986.16 c -0.43,10.6 -0.85,19.8 -1.27,27.64 -0.43,7.84 -0.82,14.93 -1.17,21.29 -0.35,6.35 -0.59,12.2 -0.74,17.57 -0.14,5.36 -0.2,10.87 -0.2,16.52 0,14.54 0.66,25.87 2.01,33.99 1.33,8.12 4.26,12.53 8.79,13.23 l 25.41,4.03 2.01,0.31 2.01,0.11 c 4.79,0 8.51,-1.41 11.11,-4.24 2.62,-2.82 4,-6.07 4.13,-9.74 l -8.25,-134.05 2.96,0.21 55.69,132.79 c 0.43,1.97 1.35,3.87 2.76,5.72 1.41,1.83 3.25,3.41 5.51,4.76 2.25,1.34 4.76,2.43 7.52,3.28 2.75,0.85 5.68,1.27 8.78,1.27 8.19,0 14.75,-1.66 19.7,-4.97 4.94,-3.32 7.41,-7.6 7.41,-12.82 0,-3.95 -0.53,-7.7 -1.59,-11.22 -1.05,-3.53 -2.54,-7.38 -4.44,-11.54 -1.92,-4.17 -4.17,-8.79 -6.78,-13.87 -2.62,-5.09 -5.48,-11.09 -8.58,-18 -0.99,-2.54 -1.84,-5.16 -2.54,-7.84 -0.7,-2.4 -1.31,-5.12 -1.8,-8.15 -0.5,-3.04 -0.74,-6.18 -0.74,-9.43 0,-3.38 0.42,-6.7 1.27,-9.95 0.85,-3.25 2.33,-6.18 4.45,-8.79 2.11,-2.61 5,-4.69 8.68,-6.25 3.67,-1.55 8.4,-2.32 14.19,-2.32 4.23,0 9.13,1.08 14.72,3.28 5.58,2.18 10.83,4.69 15.77,7.52 5.79,3.24 11.72,6.91 17.79,11.01 v -49.77 c -9.31,-5.93 -18.95,-10.66 -28.9,-14.19 -9.95,-3.53 -19.46,-5.29 -28.49,-5.29 -7.63,0 -14.43,1.16 -20.44,3.49 -5.99,2.33 -11.08,5.47 -15.24,9.42 -4.17,3.96 -7.41,8.4 -9.74,13.35 -2.33,4.94 -3.57,10.09 -3.71,15.46 -4.09,-8.47 -8.76,-17.16 -13.97,-26.05 -5.23,-8.89 -10.63,-16.94 -16.21,-24.14 -5.57,-7.2 -11.15,-13.1 -16.72,-17.69 -5.59,-4.58 -10.84,-6.88 -15.78,-6.88 -8.19,0 -14.55,2.09 -19.07,6.25 -4.51,4.16 -7.87,9.42 -10.06,15.77 -2.18,6.36 -3.59,13.27 -4.22,20.76 -0.64,7.48 -1.18,14.61 -1.6,21.39 l -0.42,6.77"
         style="fill:#d42641;fill-opacity:1;fill-rule:nonzero;stroke:none"
         id="path22"
         inkscape:connector-curvature="0" /><path
         d="m 2336.58,3017.08 c 5.09,0 10.63,1.31 16.63,3.92 6,2.61 11.58,5.97 16.73,10.06 5.15,4.09 9.49,8.54 13.02,13.34 3.53,4.8 5.29,9.46 5.29,13.98 0,6.35 -1.16,11.57 -3.48,15.67 -2.34,4.09 -5.2,6.14 -8.59,6.14 -6.06,0 -11.26,-1.13 -15.55,-3.39 -4.32,-2.26 -7.92,-5.19 -10.81,-8.79 -2.9,-3.59 -5.22,-7.69 -6.99,-12.28 -1.77,-4.59 -3.1,-9.21 -4.02,-13.87 -0.92,-4.66 -1.52,-9.18 -1.8,-13.55 -0.29,-4.38 -0.43,-8.12 -0.43,-11.23 z m 28.17,-99.53 c -13.28,0 -24.89,2.4 -34.84,7.2 -9.95,4.8 -18.25,11.26 -24.88,19.38 -6.64,8.11 -11.61,17.5 -14.93,28.16 -3.32,10.66 -4.97,21.85 -4.97,33.57 0,7.91 0.77,16.27 2.32,25.09 1.55,8.83 3.92,17.48 7.1,25.95 3.17,8.47 7.16,16.55 11.96,24.24 4.8,7.7 10.41,14.47 16.84,20.33 6.43,5.86 13.62,10.52 21.6,13.98 7.97,3.46 16.84,5.19 26.57,5.19 7.91,0 15.26,-1.27 22.03,-3.81 6.78,-2.55 12.67,-6.11 17.68,-10.69 5.01,-4.59 8.93,-10.14 11.76,-16.63 2.82,-6.5 4.24,-13.77 4.24,-21.81 0,-8.76 -2.16,-17.51 -6.47,-26.26 -4.3,-8.76 -10.27,-17.02 -17.89,-24.78 -7.63,-7.77 -16.7,-14.69 -27.22,-20.75 -10.51,-6.07 -21.91,-10.81 -34.19,-14.19 2.11,-3.81 4.19,-6.99 6.25,-9.53 2.04,-2.54 4.13,-4.52 6.24,-5.93 2.11,-1.41 4.34,-2.41 6.68,-2.97 2.32,-0.56 4.83,-0.84 7.5,-0.84 8.48,0 17.41,1.69 26.8,5.08 9.39,3.39 18.53,7.62 27.42,12.71 8.9,5.08 17.3,10.62 25.2,16.62 7.91,6 14.62,11.68 20.12,17.05 l 27.32,-28.38 c -12.42,-12.85 -25.62,-24.21 -39.6,-34.1 -6.07,-4.23 -12.61,-8.4 -19.59,-12.49 -6.99,-4.1 -14.34,-7.73 -22.02,-10.91 -7.71,-3.17 -15.67,-5.71 -23.94,-7.62 -8.26,-1.91 -16.62,-2.86 -25.09,-2.86"
         style="fill:#d42641;fill-opacity:1;fill-rule:nonzero;stroke:none"
         id="path24"
         inkscape:connector-curvature="0" /><path
         d="m 1608.75,2679.94 c -12.46,-22.61 -23.57,-39.58 -33.35,-50.89 -9.77,-11.31 -17.72,-16.96 -23.86,-16.96 -8.43,0 -12.65,9.68 -12.65,29.04 0,18.78 2.68,35.65 8.05,50.61 5.36,14.94 12.89,28.21 22.57,39.81 9.68,11.6 21.18,21.47 34.5,29.62 13.32,8.14 27.89,14.85 43.7,20.13 15.82,5.26 32.53,9.15 50.17,11.64 17.64,2.49 35.75,3.74 54.35,3.74 21.66,0 43.4,-1.59 65.26,-4.75 21.86,-3.16 42.84,-7.62 62.97,-13.37 20.13,-5.75 38.91,-12.7 56.35,-20.84 17.44,-8.15 32.63,-17.16 45.57,-27.03 12.94,-9.87 23.1,-20.56 30.47,-32.05 7.38,-11.51 11.08,-23.49 11.08,-35.95 0,-14.76 -3.22,-29.32 -9.63,-43.7 -6.43,-14.37 -16.5,-27.36 -30.2,-38.95 -13.7,-11.61 -31.24,-21.14 -52.61,-28.61 -21.37,-7.48 -47.01,-11.51 -76.91,-12.08 18.97,0 35.56,-3.02 49.74,-9.05 14.19,-6.04 26.06,-14.19 35.65,-24.44 9.58,-10.26 16.77,-22.1 21.56,-35.51 4.8,-13.42 7.19,-27.51 7.19,-42.27 0,-12.07 -1.63,-24.34 -4.88,-36.8 -3.26,-12.46 -8.16,-24.44 -14.67,-35.94 -6.51,-11.5 -14.66,-22.28 -24.43,-32.34 -9.78,-10.07 -21.23,-18.84 -34.37,-26.31 -13.12,-7.48 -27.93,-13.37 -44.41,-17.68 -16.5,-4.32 -34.6,-6.47 -54.35,-6.47 -12.46,0 -25.58,0.82 -39.38,2.44 -13.8,1.63 -27.75,3.84 -41.84,6.61 -14.09,2.79 -27.94,6.09 -41.54,9.92 -13.62,3.84 -26.46,7.96 -38.53,12.36 -5.37,1.35 -10.11,3.36 -14.24,6.04 -4.12,2.68 -6.18,7.48 -6.18,14.38 0,31.82 0.82,64.4 2.45,97.75 1.62,33.36 4.94,65.94 9.92,97.76 4.98,31.81 12.16,62.15 21.56,91 9.39,28.85 21.85,54.67 37.38,77.48 13.6,9.39 25.97,14.09 37.09,14.09 13.99,0 25.68,-7.86 35.08,-23.57 -8.82,-11.89 -16.35,-25.12 -22.58,-39.68 -6.23,-14.57 -11.45,-29.86 -15.66,-45.86 -4.22,-16.01 -7.62,-32.34 -10.21,-49.02 -2.59,-16.68 -4.65,-32.97 -6.18,-48.88 -0.97,-9.01 -1.78,-18.6 -2.45,-28.75 -0.67,-10.16 -1.29,-20.51 -1.87,-31.05 -0.57,-10.55 -1,-21.04 -1.29,-31.49 -0.29,-10.44 -0.43,-20.46 -0.43,-30.04 0,-1.54 0.04,-3.64 0.14,-6.33 0.1,-2.68 0.33,-5.46 0.72,-8.33 0.39,-2.88 0.96,-5.52 1.72,-7.91 0.77,-2.4 1.92,-4.17 3.46,-5.32 11.69,-3.83 24.24,-7.09 37.67,-9.78 13.4,-2.68 26.82,-4.02 40.24,-4.02 16.29,0 32.11,1.96 47.44,5.89 15.33,3.93 28.95,10.16 40.83,18.69 11.89,8.53 21.42,19.45 28.61,32.78 7.18,13.32 10.78,29.47 10.78,48.45 0,11.11 -2.11,20.36 -6.32,27.74 -4.22,7.38 -9.74,13.56 -16.54,18.55 -6.8,4.98 -14.57,8.96 -23.29,11.93 -8.72,2.97 -17.63,5.65 -26.73,8.05 -9.12,2.39 -18.02,4.74 -26.74,7.04 -8.73,2.3 -16.49,5.22 -23.29,8.77 -6.81,3.55 -12.32,7.95 -16.54,13.22 -4.22,5.28 -6.32,12.13 -6.32,20.57 0,4.02 0.24,7.52 0.72,10.49 0.48,2.97 1.63,5.41 3.44,7.33 1.83,1.91 4.51,3.35 8.06,4.31 3.55,0.96 8.38,1.44 14.52,1.44 8.24,0 15.76,-0.34 22.57,-1.01 6.8,-0.67 14.13,-1 21.99,-1 18.4,0 35.03,2.25 49.89,6.76 14.85,4.49 27.5,10.58 37.95,18.25 10.44,7.66 18.49,16.63 24.15,26.88 5.65,10.26 8.48,21.23 8.48,32.92 0,7.67 -2.2,14.71 -6.61,21.14 -4.41,6.42 -10.59,12.17 -18.54,17.25 -7.96,5.07 -17.31,9.53 -28.04,13.37 -10.73,3.83 -22.42,7.04 -35.08,9.63 -12.65,2.59 -25.97,4.5 -39.96,5.75 -13.99,1.24 -28.17,1.87 -42.55,1.87 -18.21,0 -36.18,-1.01 -53.91,-3.02 -17.73,-2.01 -34.21,-5.08 -49.45,-9.2 -15.24,-4.13 -28.76,-9.3 -40.55,-15.53 -11.78,-6.23 -20.75,-13.46 -26.88,-21.71"
         style="fill:#d42641;fill-opacity:1;fill-rule:nonzero;stroke:none"
         id="path26"
         inkscape:connector-curvature="0" /><path
         d="m 2046.06,2654.36 c 0,4.4 0.96,9.39 2.88,14.95 1.91,5.56 5.02,10.78 9.34,15.67 4.31,4.89 10.06,9 17.25,12.36 7.18,3.35 16.15,5.03 26.88,5.03 6.71,0 13.04,-0.77 18.98,-2.3 5.93,-1.54 11.11,-3.88 15.52,-7.04 4.41,-3.16 7.91,-7.33 10.5,-12.51 2.59,-5.18 3.88,-11.31 3.88,-18.4 0,-6.52 -1.06,-12.85 -3.16,-18.98 -2.11,-6.13 -5.46,-11.59 -10.06,-16.38 -4.6,-4.8 -10.4,-8.68 -17.4,-11.65 -7,-2.97 -15.38,-4.45 -25.15,-4.45 -16.88,0 -29.34,3.97 -37.39,11.93 -8.04,7.95 -12.07,18.54 -12.07,31.77 z m 128.52,-295.57 c -6.9,-6.32 -15.48,-13.08 -25.73,-20.27 -10.26,-7.18 -21.33,-13.8 -33.22,-19.84 -11.88,-6.04 -24,-11.07 -36.36,-15.09 -12.37,-4.03 -24.1,-6.04 -35.23,-6.04 -9.96,0 -18.35,1.39 -25.15,4.17 -6.81,2.77 -12.32,6.66 -16.54,11.65 -4.21,4.98 -7.23,11.07 -9.05,18.25 -1.83,7.19 -2.73,15.1 -2.73,23.72 0,12.08 1.39,26.12 4.17,42.12 2.78,16 6.18,32.59 10.2,49.74 4.03,17.15 8.29,34.26 12.8,51.32 4.51,17.06 8.48,32.78 11.93,47.16 1.35,4.98 4.03,9.24 8.05,12.79 4.03,3.54 8.58,6.42 13.66,8.63 5.08,2.2 10.35,3.83 15.82,4.88 5.46,1.05 10.39,1.59 14.8,1.59 8.05,0 13.52,-1.49 16.39,-4.46 2.87,-2.97 4.32,-6.95 4.32,-11.93 0,-4.22 -0.97,-10.31 -2.89,-18.26 -1.91,-7.96 -4.3,-16.96 -7.18,-27.03 -2.87,-10.06 -5.95,-20.89 -9.2,-32.49 -3.26,-11.6 -6.33,-23.19 -9.2,-34.78 -2.88,-11.61 -5.28,-22.91 -7.19,-33.93 -1.92,-11.02 -2.88,-20.95 -2.88,-29.76 0,-8.62 0.96,-15.48 2.88,-20.56 1.91,-5.08 5.84,-7.61 11.79,-7.61 6.9,0 14.56,2.39 23,7.18 8.43,4.79 16.96,10.59 25.59,17.4 8.62,6.8 17.05,13.84 25.29,21.13 8.25,7.28 15.53,13.51 21.86,18.69 v -58.37"
         style="fill:#d42641;fill-opacity:1;fill-rule:nonzero;stroke:none"
         id="path28"
         inkscape:connector-curvature="0" /><path
         d="m 2302.81,2781.15 c -6.14,0 -11.4,-1.92 -15.82,-5.75 -4.4,-3.84 -8.57,-9.3 -12.5,-16.39 -3.93,-7.09 -7.86,-15.72 -11.78,-25.87 -3.94,-10.16 -8.39,-21.47 -13.37,-33.93 -3.08,-10.93 -5.9,-22.24 -8.49,-33.93 -2.59,-11.69 -4.93,-23.33 -7.04,-34.93 -2.11,-11.6 -3.99,-23.05 -5.61,-34.36 -1.63,-11.31 -3.01,-21.95 -4.17,-31.91 -2.88,-23.58 -5.17,-46.77 -6.9,-69.58 4.22,12.65 8.82,26.4 13.8,41.26 4.99,14.85 9.92,29.51 14.81,43.99 4.89,14.47 9.48,28.17 13.8,41.11 4.31,12.94 7.9,23.91 10.78,32.92 1.34,4.22 3.25,9.49 5.75,15.82 2.49,6.32 5.18,13.12 8.05,20.41 2.87,7.28 5.75,14.85 8.62,22.71 2.89,7.86 5.51,15.43 7.91,22.72 2.4,7.28 4.36,14.08 5.89,20.41 1.54,6.33 2.31,11.69 2.31,16.1 0,6.13 -2.01,9.2 -6.04,9.2 z m -56.35,-322.88 c 6.9,8.82 14.47,18.49 22.71,29.04 8.24,10.54 16.34,20.6 24.3,30.19 7.95,9.58 15.23,18.11 21.84,25.59 6.62,7.47 11.84,12.55 15.68,15.24 5.93,4.21 13.22,7.81 21.85,10.78 8.62,2.97 18.2,4.46 28.75,4.46 5.36,0 10.49,-1.25 15.38,-3.74 4.89,-2.49 9.15,-6.04 12.8,-10.64 3.64,-4.6 6.51,-10.16 8.62,-16.68 2.11,-6.52 3.16,-13.8 3.16,-21.85 0,-7.86 -1.91,-15.77 -5.75,-23.72 -3.84,-7.95 -8.62,-15.96 -14.37,-24 -5.76,-8.05 -11.99,-16.11 -18.7,-24.16 -6.7,-8.05 -12.93,-16.15 -18.68,-24.29 -5.75,-8.15 -10.54,-16.25 -14.37,-24.3 -3.84,-8.05 -5.75,-16.1 -5.75,-24.15 0,-6.9 1.67,-11.83 5.03,-14.8 3.34,-2.98 8.57,-4.46 15.67,-4.46 3.83,0 8,1.29 12.5,3.88 4.5,2.59 9.15,5.99 13.94,10.21 4.8,4.21 9.64,8.91 14.53,14.08 4.89,5.18 9.58,10.45 14.09,15.82 4.5,5.37 8.77,10.49 12.79,15.38 4.02,4.89 7.67,9.06 10.93,12.51 l 17.24,-70.44 c -5.93,-8.63 -13.46,-16.64 -22.56,-24.01 -9.11,-7.38 -18.98,-13.8 -29.61,-19.27 -10.65,-5.46 -21.67,-9.72 -33.07,-12.79 -11.41,-3.07 -22.38,-4.6 -32.92,-4.6 -13.81,0 -25.07,1.68 -33.79,5.03 -8.72,3.35 -15.57,7.81 -20.56,13.37 -4.98,5.56 -8.38,11.84 -10.2,18.83 -1.83,7 -2.73,14.24 -2.73,21.71 0,4.41 0.52,9.82 1.58,16.25 1.05,6.42 3.06,13.65 6.04,21.71 2.97,8.04 7.14,16.91 12.5,26.59 5.37,9.68 12.37,20.08 21,31.19 3.45,3.46 6.61,6.57 9.48,9.35 2.87,2.77 5.36,5.27 7.48,7.47 2.1,2.21 3.73,4.27 4.88,6.19 1.16,1.91 1.73,3.92 1.73,6.03 0,4.03 -0.72,7.29 -2.16,9.78 -1.43,2.49 -3.49,3.74 -6.18,3.74 -3.26,0 -7.48,-2.12 -12.65,-6.33 -5.17,-4.22 -10.83,-11.6 -16.97,-22.14 l -84.52,-148.35 c -4.41,-7.67 -8.96,-12.99 -13.66,-15.96 -4.7,-2.97 -10.11,-4.46 -16.24,-4.46 -8.24,0 -14.77,1.77 -19.55,5.32 -4.8,3.54 -8.44,8.34 -10.93,14.37 -2.49,6.04 -4.07,13.04 -4.75,20.99 -0.67,7.95 -1,16.44 -1,25.45 0,10.93 0.38,25.39 1.15,43.41 0.76,18.02 1.92,37.81 3.45,59.38 1.53,21.56 3.59,44.13 6.18,67.71 2.59,23.57 5.7,46.47 9.35,68.71 1.33,7.86 3.06,17.4 5.17,28.61 2.11,11.21 4.75,23.24 7.91,36.08 3.16,12.84 6.9,26.21 11.21,40.11 4.31,13.89 9.3,27.41 14.95,40.54 5.65,13.12 12.03,25.63 19.13,37.52 7.09,11.88 15.03,22.28 23.85,31.2 8.82,8.91 18.5,15.95 29.05,21.13 10.53,5.17 22.04,7.76 34.5,7.76 9.77,0 17.82,-1.58 24.15,-4.74 6.33,-3.16 11.36,-7.58 15.1,-13.23 3.73,-5.66 6.36,-12.41 7.9,-20.27 1.53,-7.86 2.3,-16.39 2.3,-25.59 0,-16.29 -2.06,-33.83 -6.18,-52.61 -4.13,-18.79 -9.35,-37.62 -15.67,-56.5 -6.32,-18.88 -13.23,-37.23 -20.71,-55.06 -7.47,-17.82 -14.66,-33.93 -21.56,-48.3 -6.89,-14.38 -12.99,-26.5 -18.25,-36.37 -5.28,-9.88 -8.77,-16.35 -10.5,-19.41 l -34.21,-51.17 6.9,-4.32"
         style="fill:#d42641;fill-opacity:1;fill-rule:nonzero;stroke:none"
         id="path30"
         inkscape:connector-curvature="0" /><path
         d="m 2498.04,2432.68 c 6.9,0 14.42,1.77 22.57,5.32 8.14,3.55 15.71,8.1 22.71,13.66 6.99,5.55 12.89,11.59 17.69,18.11 4.78,6.52 7.18,12.84 7.18,18.98 0,8.63 -1.58,15.71 -4.74,21.28 -3.17,5.55 -7.04,8.33 -11.64,8.33 -8.26,0 -15.3,-1.54 -21.14,-4.6 -5.85,-3.06 -10.74,-7.04 -14.66,-11.93 -3.93,-4.89 -7.09,-10.45 -9.49,-16.68 -2.4,-6.23 -4.22,-12.5 -5.47,-18.83 -1.25,-6.32 -2.06,-12.46 -2.44,-18.4 -0.39,-5.94 -0.57,-11.02 -0.57,-15.24 z m 38.24,-135.13 c -18.02,0 -33.79,3.26 -47.3,9.78 -13.51,6.51 -24.77,15.28 -33.78,26.31 -9.02,11.02 -15.77,23.76 -20.27,38.23 -4.51,14.47 -6.76,29.66 -6.76,45.57 0,10.74 1.05,22.09 3.17,34.08 2.1,11.97 5.31,23.72 9.63,35.22 4.31,11.49 9.72,22.47 16.24,32.92 6.51,10.44 14.14,19.64 22.86,27.6 8.72,7.95 18.49,14.28 29.32,18.97 10.83,4.7 22.87,7.05 36.09,7.05 10.73,0 20.7,-1.73 29.9,-5.18 9.2,-3.45 17.2,-8.29 24,-14.52 6.81,-6.23 12.12,-13.75 15.96,-22.57 3.84,-8.82 5.75,-18.68 5.75,-29.61 0,-11.89 -2.93,-23.77 -8.77,-35.65 -5.85,-11.89 -13.94,-23.1 -24.29,-33.64 -10.35,-10.55 -22.67,-19.94 -36.95,-28.18 -14.27,-8.24 -29.75,-14.66 -46.43,-19.26 2.88,-5.18 5.7,-9.49 8.48,-12.94 2.78,-3.45 5.61,-6.14 8.48,-8.05 2.88,-1.92 5.9,-3.26 9.06,-4.02 3.16,-0.78 6.57,-1.16 10.21,-1.16 11.49,0 23.62,2.3 36.37,6.9 12.74,4.61 25.15,10.35 37.23,17.25 12.07,6.91 23.48,14.43 34.21,22.58 10.73,8.14 19.85,15.85 27.32,23.14 l 37.09,-38.53 c -16.87,-17.44 -34.79,-32.87 -53.76,-46.29 -8.25,-5.75 -17.11,-11.4 -26.61,-16.96 -9.48,-5.56 -19.45,-10.49 -29.9,-14.81 -10.45,-4.31 -21.27,-7.76 -32.48,-10.35 -11.22,-2.59 -22.58,-3.88 -34.07,-3.88"
         style="fill:#d42641;fill-opacity:1;fill-rule:nonzero;stroke:none"
         id="path32"
         inkscape:connector-curvature="0" /><path
         d="m 3408.97,523.219 c 0,-42.34 -217.89,-76.668 -486.67,-76.668 -268.77,0 -486.67,34.328 -486.67,76.668 0,42.34 217.9,76.672 486.67,76.672 268.78,0 486.67,-34.332 486.67,-76.672"
         style="fill:#d3d2d2;fill-opacity:1;fill-rule:nonzero;stroke:none"
         id="path34"
         inkscape:connector-curvature="0" /><path
         d="m 1688.97,516.551 c 0,-42.34 -217.89,-76.66 -486.67,-76.66 -268.777,0 -486.663,34.32 -486.663,76.66 0,42.34 217.886,76.668 486.663,76.668 268.78,0 486.67,-34.328 486.67,-76.668"
         style="fill:#d3d2d2;fill-opacity:1;fill-rule:nonzero;stroke:none"
         id="path36"
         inkscape:connector-curvature="0" /><path
         d="m 1735.66,1825.73 -63.21,-10.23 -15.51,95.8 63.23,10.23 15.49,-95.8"
         style="fill:#bdbcbc;fill-opacity:1;fill-rule:nonzero;stroke:none"
         id="path38"
         inkscape:connector-curvature="0" /><path
         d="m 1485.93,685.32 -7.76,-5.84 -513.119,682.42 7.754,5.84 513.125,-682.42"
         style="fill:#aeacac;fill-opacity:1;fill-rule:nonzero;stroke:none"
         id="path40"
         inkscape:connector-curvature="0" /><path
         d="m 877.258,770.172 -5.832,7.758 682.424,513.13 5.83,-7.76 -682.422,-513.128"
         style="fill:#aeacac;fill-opacity:1;fill-rule:nonzero;stroke:none"
         id="path42"
         inkscape:connector-curvature="0" /><path
         d="m 1349.05,613.57 -9.31,-2.699 -236.62,820.379 9.32,2.69 236.61,-820.37"
         style="fill:#aeacac;fill-opacity:1;fill-rule:nonzero;stroke:none"
         id="path44"
         inkscape:connector-curvature="0" /><path
         d="m 810.461,909.512 -2.695,9.328 820.364,236.62 2.7,-9.34 -820.369,-236.608"
         style="fill:#aeacac;fill-opacity:1;fill-rule:nonzero;stroke:none"
         id="path46"
         inkscape:connector-curvature="0" /><path
         d="m 1171.16,597.48 -9.61,1.36 119.69,845.38 9.61,-1.36 -119.69,-845.38"
         style="fill:#aeacac;fill-opacity:1;fill-rule:nonzero;stroke:none"
         id="path48"
         inkscape:connector-curvature="0" /><path
         d="m 800.754,1087.86 1.355,9.62 845.391,-119.699 -1.37,-9.621 -845.376,119.7"
         style="fill:#aeacac;fill-opacity:1;fill-rule:nonzero;stroke:none"
         id="path50"
         inkscape:connector-curvature="0" /><path
         d="m 1009.54,651.281 -8.32,5.008 440.64,731.321 8.33,-5.01 -440.65,-731.319"
         style="fill:#aeacac;fill-opacity:1;fill-rule:nonzero;stroke:none"
         id="path52"
         inkscape:connector-curvature="0" /><path
         d="m 860.293,1247.43 5.012,8.32 731.345,-440.629 -5.02,-8.32 -731.337,440.629"
         style="fill:#aeacac;fill-opacity:1;fill-rule:nonzero;stroke:none"
         id="path54"
         inkscape:connector-curvature="0" /><path
         d="m 1231.08,594.469 h -9.69 v 853.811 h 9.69 V 594.469"
         style="fill:#bdbcbc;fill-opacity:1;fill-rule:nonzero;stroke:none"
         id="path56"
         inkscape:connector-curvature="0" /><path
         d="m 795.598,1028.08 v 9.71 H 1649.4 v -9.71 H 795.598"
         style="fill:#bdbcbc;fill-opacity:1;fill-rule:nonzero;stroke:none"
         id="path58"
         inkscape:connector-curvature="0" /><path
         d="m 1078.56,619.371 -9.06,3.457 303.92,797.892 9.07,-3.46 -303.93,-797.889"
         style="fill:#bdbcbc;fill-opacity:1;fill-rule:nonzero;stroke:none"
         id="path60"
         inkscape:connector-curvature="0" /><path
         d="m 825.945,1179.6 3.457,9.07 797.888,-303.92 -3.45,-9.07 -797.895,303.92"
         style="fill:#bdbcbc;fill-opacity:1;fill-rule:nonzero;stroke:none"
         id="path62"
         inkscape:connector-curvature="0" /><path
         d="m 926.711,713.43 -6.875,6.871 603.734,603.729 6.87,-6.86 -603.729,-603.74"
         style="fill:#bdbcbc;fill-opacity:1;fill-rule:nonzero;stroke:none"
         id="path64"
         inkscape:connector-curvature="0" /><path
         d="m 925.383,1327.98 6.875,6.86 603.732,-603.719 -6.88,-6.871 -603.727,603.73"
         style="fill:#bdbcbc;fill-opacity:1;fill-rule:nonzero;stroke:none"
         id="path66"
         inkscape:connector-curvature="0" /><path
         d="m 829.871,853.551 -3.633,9.008 791.682,319.701 3.64,-9 -791.689,-319.709"
         style="fill:#bdbcbc;fill-opacity:1;fill-rule:nonzero;stroke:none"
         id="path68"
         inkscape:connector-curvature="0" /><path
         d="m 1068.87,1419.72 9.01,3.65 319.69,-791.702 -9,-3.629 -319.7,791.681"
         style="fill:#bdbcbc;fill-opacity:1;fill-rule:nonzero;stroke:none"
         id="path70"
         inkscape:connector-curvature="0" /><path
         d="m 1222.5,580.629 c -249.805,0 -452.312,202.5 -452.312,452.301 0,249.81 202.507,452.31 452.312,452.31 249.81,0 452.31,-202.5 452.31,-452.31 0,-249.801 -202.5,-452.301 -452.31,-452.301 z m 545.15,452.301 c 0,8.32 -16.07,16.24 -16.43,24.46 -0.39,8.31 14.88,17.64 14.13,25.85 -0.75,8.27 -17.47,14.68 -18.59,22.85 -1.14,8.22 13.2,18.92 11.7,27.03 -1.52,8.17 -18.76,13 -20.64,21.03 -1.89,8.08 11.41,20.08 9.14,28.01 -2.25,7.97 -19.88,11.19 -22.5,19.01 -2.62,7.87 9.5,21.04 6.51,28.74 -3,7.73 -20.83,9.29 -24.16,16.85 -3.36,7.58 7.49,21.83 3.8,29.21 -3.71,7.42 -21.62,7.31 -25.64,14.54 -4.02,7.23 5.45,22.41 1.08,29.43 -4.35,7.04 -22.17,5.3 -26.85,12.11 -4.69,6.82 3.36,22.82 -1.63,29.41 -5,6.61 -22.58,3.22 -27.87,9.59 -5.29,6.36 1.26,23.03 -4.32,29.14 -5.59,6.11 -22.77,1.14 -28.62,6.98 -5.85,5.85 -0.87,23.05 -6.98,28.62 -6.12,5.58 -22.8,-0.95 -29.15,4.34 -6.36,5.28 -2.97,22.87 -9.57,27.86 -6.6,4.98 -22.6,-3.06 -29.43,1.63 -6.81,4.67 -5.06,22.5 -12.1,26.86 -7.02,4.37 -22.22,-5.12 -29.44,-1.08 -7.21,4.02 -7.11,21.93 -14.53,25.63 -7.4,3.69 -21.63,-7.16 -29.22,-3.8 -7.56,3.34 -9.12,21.17 -16.86,24.17 -7.68,2.98 -20.86,-9.14 -28.73,-6.51 -7.83,2.63 -11.03,20.24 -19.02,22.51 -7.93,2.26 -19.92,-11.05 -28.01,-9.15 -8.03,1.88 -12.86,19.12 -21.03,20.63 -8.1,1.52 -18.8,-12.83 -27.04,-11.7 -8.16,1.13 -14.57,17.85 -22.84,18.61 -8.21,0.75 -17.55,-14.53 -25.86,-14.15 -8.21,0.38 -16.12,16.44 -24.45,16.44 -8.31,0 -16.22,-16.06 -24.45,-16.44 -8.31,-0.38 -17.63,14.9 -25.85,14.14 -8.28,-0.75 -14.69,-17.47 -22.85,-18.6 -8.23,-1.13 -18.93,13.22 -27.05,11.71 -8.15,-1.52 -12.99,-18.76 -21.02,-20.64 -8.08,-1.9 -20.06,11.41 -28.01,9.15 -7.97,-2.27 -11.19,-19.88 -19,-22.5 -7.87,-2.64 -21.04,9.49 -28.73,6.5 -7.74,-2.99 -9.3,-20.83 -16.86,-24.17 -7.58,-3.36 -21.817,7.49 -29.215,3.81 -7.422,-3.7 -7.324,-21.6 -14.531,-25.63 -7.246,-4.04 -22.422,5.44 -29.446,1.08 -7.043,-4.36 -5.285,-22.18 -12.097,-26.85 -6.836,-4.7 -22.817,3.35 -29.426,-1.64 -6.594,-4.99 -3.223,-22.58 -9.578,-27.86 -6.352,-5.28 -23.039,1.25 -29.145,-4.33 -6.109,-5.57 -1.133,-22.77 -6.98,-28.63 -5.852,-5.84 -23.059,-0.85 -28.621,-6.98 -5.578,-6.11 0.964,-22.77 -4.321,-29.14 -5.293,-6.35 -22.871,-2.98 -27.871,-9.58 -5,-6.59 3.047,-22.59 -1.621,-29.41 -4.683,-6.81 -22.5,-5.07 -26.875,-12.11 -4.363,-7.02 5.117,-22.21 1.086,-29.44 -4.023,-7.21 -21.934,-7.11 -25.637,-14.53 -3.679,-7.39 7.161,-21.64 3.813,-29.23 -3.352,-7.54 -21.172,-9.1 -24.184,-16.83 -2.984,-7.7 9.133,-20.88 6.504,-28.74 -2.613,-7.83 -20.23,-11.05 -22.5,-19.02 -2.242,-7.94 11.035,-19.94 9.145,-28.02 -1.875,-8.03 -19.121,-12.86 -20.637,-21.03 -1.492,-8.1 12.844,-18.81 11.711,-27.03 -1.137,-8.17 -17.856,-14.58 -18.613,-22.85 -0.746,-8.21 14.531,-17.54 14.148,-25.85 -0.359,-8.22 -16.434,-16.14 -16.434,-24.46 0,-8.31 16.075,-16.22 16.434,-24.46 0.383,-8.3 -14.894,-17.642 -14.148,-25.841 0.757,-8.27 17.476,-14.688 18.613,-22.848 1.133,-8.23 -13.203,-18.929 -11.711,-27.031 1.516,-8.172 18.762,-13.012 20.637,-21.031 1.89,-8.09 -11.387,-20.071 -9.145,-28.008 2.27,-7.981 19.887,-11.203 22.5,-19.02 2.629,-7.863 -9.488,-21.043 -6.512,-28.742 2.997,-7.73 20.84,-9.289 24.18,-16.84 3.36,-7.578 -7.488,-21.828 -3.808,-29.218 3.71,-7.411 21.601,-7.313 25.632,-14.532 4.043,-7.23 -5.437,-22.418 -1.089,-29.429 4.375,-7.051 22.183,-5.289 26.875,-12.11 4.683,-6.832 -3.364,-22.832 1.621,-29.422 5,-6.597 22.578,-3.218 27.871,-9.578 5.293,-6.359 -1.262,-23.031 4.312,-29.14 5.586,-6.121 22.778,-1.129 28.625,-6.981 5.86,-5.859 0.867,-23.051 6.985,-28.629 6.113,-5.582 22.781,0.961 29.16,-4.332 6.336,-5.289 2.968,-22.867 9.566,-27.859 6.606,-4.988 22.59,3.051 29.414,-1.629 6.828,-4.691 5.063,-22.5 12.102,-26.859 7.019,-4.36 22.219,5.109 29.441,1.078 7.231,-4.028 7.11,-21.93 14.531,-25.629 7.407,-3.699 21.639,7.148 29.219,3.801 7.56,-3.34 9.12,-21.172 16.86,-24.172 7.69,-2.989 20.86,9.133 28.73,6.5 7.83,-2.617 11.03,-20.239 19.02,-22.5 7.95,-2.258 19.93,11.043 28.01,9.14 8.03,-1.879 12.87,-19.129 21.02,-20.64 8.12,-1.489 18.82,12.859 27.05,11.711 8.16,-1.121 14.57,-17.84 22.85,-18.602 8.22,-0.75 17.54,14.531 25.85,14.152 8.23,-0.378 16.14,-16.441 24.45,-16.441 8.33,0 16.24,16.063 24.45,16.441 8.31,0.379 17.65,-14.902 25.86,-14.152 8.27,0.762 14.69,17.481 22.84,18.602 8.24,1.148 18.94,-13.2 27.04,-11.711 8.17,1.511 13,18.761 21.03,20.64 8.09,1.903 20.08,-11.398 28.01,-9.14 7.97,2.261 11.19,19.871 19.01,22.492 7.86,2.641 21.04,-9.481 28.74,-6.492 7.74,3 9.29,20.832 16.85,24.172 7.58,3.339 21.82,-7.5 29.23,-3.801 7.4,3.691 7.3,21.601 14.52,25.629 7.22,4.031 22.41,-5.449 29.44,-1.09 7.03,4.359 5.28,22.18 12.11,26.851 6.82,4.688 22.8,-3.351 29.41,1.641 6.61,5 3.21,22.57 9.58,27.859 6.36,5.29 23.02,-1.242 29.14,4.329 6.11,5.57 1.13,22.769 6.99,28.621 5.84,5.851 23.04,0.871 28.61,6.98 5.59,6.121 -0.96,22.781 4.34,29.149 5.27,6.351 22.87,2.98 27.85,9.57 5,6.601 -3.05,22.601 1.64,29.43 4.67,6.812 22.49,5.062 26.86,12.101 4.35,7.02 -5.12,22.211 -1.1,29.442 4.04,7.218 21.95,7.117 25.66,14.527 3.67,7.402 -7.16,21.641 -3.82,29.223 3.35,7.546 21.18,9.109 24.18,16.839 2.99,7.7 -9.13,20.879 -6.51,28.739 2.62,7.828 20.25,11.039 22.5,19.019 2.27,7.949 -11.03,19.93 -9.14,28.02 1.88,8.019 19.12,12.859 20.64,21.019 1.5,8.114 -12.84,18.821 -11.7,27.043 1.12,8.168 17.84,14.578 18.59,22.848 0.75,8.199 -14.52,17.541 -14.13,25.841 0.36,8.24 16.43,16.15 16.43,24.46"
         style="fill:#2c2829;fill-opacity:1;fill-rule:nonzero;stroke:none"
         id="path72"
         inkscape:connector-curvature="0" /><path
         d="m 1222.5,617.59 c -229.387,0 -415.344,185.949 -415.344,415.34 0,229.39 185.957,415.35 415.344,415.35 229.38,0 415.35,-185.96 415.35,-415.35 0,-229.391 -185.97,-415.34 -415.35,-415.34 z m 0,867.65 c -249.805,0 -452.312,-202.5 -452.312,-452.31 0,-249.801 202.507,-452.301 452.312,-452.301 249.81,0 452.31,202.5 452.31,452.301 0,249.81 -202.5,452.31 -452.31,452.31"
         style="fill:#656263;fill-opacity:1;fill-rule:nonzero;stroke:none"
         id="path74"
         inkscape:connector-curvature="0" /><path
         d="m 1288.98,1032.93 c 0,-36.7 -29.77,-66.469 -66.48,-66.469 -36.71,0 -66.47,29.769 -66.47,66.469 0,36.71 29.76,66.47 66.47,66.47 36.71,0 66.48,-29.76 66.48,-66.47"
         style="fill:#918f90;fill-opacity:1;fill-rule:nonzero;stroke:none"
         id="path76"
         inkscape:connector-curvature="0" /><path
         d="m 1268.54,1030.61 c 0,-24.52 -19.88,-44.419 -44.42,-44.419 -24.52,0 -44.41,19.899 -44.41,44.419 0,24.53 19.89,44.42 44.41,44.42 24.54,0 44.42,-19.89 44.42,-44.42"
         style="fill:#bdbcbc;fill-opacity:1;fill-rule:nonzero;stroke:none"
         id="path78"
         inkscape:connector-curvature="0" /><path
         d="m 3194.89,685.32 -7.75,-5.84 -513.15,682.42 7.77,5.84 513.13,-682.42"
         style="fill:#aeacac;fill-opacity:1;fill-rule:nonzero;stroke:none"
         id="path80"
         inkscape:connector-curvature="0" /><path
         d="m 2586.22,770.172 -5.84,7.758 682.41,513.13 5.85,-7.76 -682.42,-513.128"
         style="fill:#aeacac;fill-opacity:1;fill-rule:nonzero;stroke:none"
         id="path82"
         inkscape:connector-curvature="0" /><path
         d="m 3058.02,613.57 -9.34,-2.699 -236.6,820.379 9.33,2.69 236.61,-820.37"
         style="fill:#aeacac;fill-opacity:1;fill-rule:nonzero;stroke:none"
         id="path84"
         inkscape:connector-curvature="0" /><path
         d="m 2519.42,909.512 -2.68,9.328 820.35,236.62 2.7,-9.34 -820.37,-236.608"
         style="fill:#aeacac;fill-opacity:1;fill-rule:nonzero;stroke:none"
         id="path86"
         inkscape:connector-curvature="0" /><path
         d="m 2880.11,597.48 -9.61,1.36 119.71,845.38 9.6,-1.36 -119.7,-845.38"
         style="fill:#aeacac;fill-opacity:1;fill-rule:nonzero;stroke:none"
         id="path88"
         inkscape:connector-curvature="0" /><path
         d="m 2509.72,1087.86 1.34,9.62 845.39,-119.699 -1.36,-9.621 -845.37,119.7"
         style="fill:#aeacac;fill-opacity:1;fill-rule:nonzero;stroke:none"
         id="path90"
         inkscape:connector-curvature="0" /><path
         d="m 2718.5,651.281 -8.31,5.008 440.62,731.321 8.32,-5.01 -440.63,-731.319"
         style="fill:#aeacac;fill-opacity:1;fill-rule:nonzero;stroke:none"
         id="path92"
         inkscape:connector-curvature="0" /><path
         d="m 2569.27,1247.43 5,8.32 731.33,-440.629 -5.01,-8.32 -731.32,440.629"
         style="fill:#aeacac;fill-opacity:1;fill-rule:nonzero;stroke:none"
         id="path94"
         inkscape:connector-curvature="0" /><path
         d="m 2940.05,594.469 h -9.72 v 853.811 h 9.72 V 594.469"
         style="fill:#bdbcbc;fill-opacity:1;fill-rule:nonzero;stroke:none"
         id="path96"
         inkscape:connector-curvature="0" /><path
         d="m 2504.56,1028.08 v 9.71 h 853.81 v -9.71 h -853.81"
         style="fill:#bdbcbc;fill-opacity:1;fill-rule:nonzero;stroke:none"
         id="path98"
         inkscape:connector-curvature="0" /><path
         d="m 2787.53,619.371 -9.08,3.457 303.92,797.892 9.09,-3.46 -303.93,-797.889"
         style="fill:#bdbcbc;fill-opacity:1;fill-rule:nonzero;stroke:none"
         id="path100"
         inkscape:connector-curvature="0" /><path
         d="m 2534.89,1179.6 3.48,9.07 797.87,-303.92 -3.46,-9.07 -797.89,303.92"
         style="fill:#bdbcbc;fill-opacity:1;fill-rule:nonzero;stroke:none"
         id="path102"
         inkscape:connector-curvature="0" /><path
         d="m 2635.65,713.43 -6.85,6.871 603.73,603.729 6.87,-6.86 -603.75,-603.74"
         style="fill:#bdbcbc;fill-opacity:1;fill-rule:nonzero;stroke:none"
         id="path104"
         inkscape:connector-curvature="0" /><path
         d="m 2634.33,1327.98 6.87,6.86 603.73,-603.719 -6.85,-6.871 -603.75,603.73"
         style="fill:#bdbcbc;fill-opacity:1;fill-rule:nonzero;stroke:none"
         id="path106"
         inkscape:connector-curvature="0" /><path
         d="m 2538.82,853.551 -3.63,9.008 791.69,319.701 3.65,-9 -791.71,-319.709"
         style="fill:#bdbcbc;fill-opacity:1;fill-rule:nonzero;stroke:none"
         id="path108"
         inkscape:connector-curvature="0" /><path
         d="m 2777.81,1419.72 9.02,3.65 319.7,-791.702 -9,-3.629 -319.72,791.681"
         style="fill:#bdbcbc;fill-opacity:1;fill-rule:nonzero;stroke:none"
         id="path110"
         inkscape:connector-curvature="0" /><path
         d="m 2931.46,580.629 c -249.81,0 -452.31,202.5 -452.31,452.301 0,249.81 202.5,452.31 452.31,452.31 249.8,0 452.32,-202.5 452.32,-452.31 0,-249.801 -202.52,-452.301 -452.32,-452.301 z m 545.14,452.301 c 0,8.32 -16.06,16.24 -16.43,24.46 -0.38,8.31 14.9,17.64 14.15,25.85 -0.77,8.27 -17.47,14.68 -18.61,22.85 -1.13,8.22 13.21,18.92 11.7,27.03 -1.52,8.17 -18.76,13 -20.63,21.03 -1.89,8.08 11.39,20.08 9.15,28.01 -2.28,7.97 -19.89,11.19 -22.5,19.01 -2.64,7.87 9.49,21.04 6.5,28.74 -3,7.73 -20.84,9.29 -24.18,16.85 -3.36,7.58 7.5,21.83 3.81,29.21 -3.71,7.42 -21.6,7.31 -25.62,14.54 -4.05,7.23 5.43,22.41 1.08,29.43 -4.37,7.04 -22.18,5.3 -26.87,12.11 -4.68,6.82 3.36,22.82 -1.62,29.41 -5,6.61 -22.58,3.22 -27.88,9.59 -5.28,6.36 1.26,23.03 -4.31,29.14 -5.58,6.11 -22.79,1.14 -28.63,6.98 -5.86,5.85 -0.86,23.05 -6.97,28.62 -6.11,5.58 -22.79,-0.95 -29.16,4.34 -6.35,5.28 -2.98,22.87 -9.57,27.86 -6.6,4.98 -22.58,-3.06 -29.42,1.63 -6.83,4.67 -5.06,22.5 -12.1,26.86 -7.02,4.37 -22.21,-5.12 -29.45,-1.08 -7.21,4.02 -7.11,21.93 -14.52,25.63 -7.4,3.69 -21.65,-7.16 -29.23,-3.8 -7.55,3.34 -9.11,21.17 -16.85,24.17 -7.69,2.98 -20.87,-9.14 -28.72,-6.51 -7.84,2.63 -11.06,20.24 -19.04,22.51 -7.94,2.26 -19.93,-11.05 -28,-9.15 -8.03,1.88 -12.88,19.12 -21.03,20.63 -8.11,1.52 -18.81,-12.83 -27.04,-11.7 -8.15,1.13 -14.57,17.85 -22.85,18.61 -8.2,0.75 -17.54,-14.53 -25.85,-14.15 -8.22,0.38 -16.13,16.44 -24.45,16.44 -8.33,0 -16.24,-16.06 -24.46,-16.44 -8.31,-0.38 -17.64,14.9 -25.84,14.14 -8.28,-0.75 -14.69,-17.47 -22.85,-18.6 -8.24,-1.13 -18.94,13.22 -27.03,11.71 -8.18,-1.52 -13.01,-18.76 -21.04,-20.64 -8.08,-1.9 -20.07,11.41 -28,9.15 -7.98,-2.27 -11.2,-19.88 -19.03,-22.5 -7.85,-2.64 -21.03,9.49 -28.73,6.5 -7.73,-2.99 -9.29,-20.83 -16.85,-24.17 -7.58,-3.36 -21.82,7.49 -29.21,3.81 -7.41,-3.7 -7.33,-21.6 -14.54,-25.63 -7.23,-4.04 -22.42,5.44 -29.44,1.08 -7.03,-4.36 -5.29,-22.18 -12.11,-26.85 -6.81,-4.7 -22.81,3.35 -29.41,-1.64 -6.6,-4.99 -3.21,-22.58 -9.57,-27.86 -6.37,-5.28 -23.04,1.25 -29.14,-4.33 -6.11,-5.57 -1.14,-22.77 -6.99,-28.63 -5.85,-5.84 -23.05,-0.85 -28.62,-6.98 -5.58,-6.11 0.96,-22.77 -4.33,-29.14 -5.28,-6.35 -22.87,-2.98 -27.87,-9.58 -4.98,-6.59 3.06,-22.59 -1.62,-29.41 -4.68,-6.81 -22.5,-5.07 -26.88,-12.11 -4.34,-7.02 5.14,-22.21 1.1,-29.44 -4.04,-7.21 -21.94,-7.11 -25.63,-14.53 -3.69,-7.39 7.15,-21.64 3.8,-29.23 -3.35,-7.54 -21.18,-9.1 -24.17,-16.83 -2.99,-7.7 9.12,-20.88 6.49,-28.74 -2.61,-7.83 -20.24,-11.05 -22.5,-19.02 -2.25,-7.94 11.04,-19.94 9.15,-28.02 -1.87,-8.03 -19.12,-12.86 -20.64,-21.03 -1.51,-8.1 12.85,-18.81 11.7,-27.03 -1.13,-8.17 -17.84,-14.58 -18.6,-22.85 -0.75,-8.21 14.53,-17.54 14.14,-25.85 -0.37,-8.22 -16.42,-16.14 -16.42,-24.46 0,-8.31 16.05,-16.22 16.42,-24.46 0.39,-8.3 -14.89,-17.642 -14.14,-25.841 0.76,-8.27 17.48,-14.688 18.6,-22.848 1.15,-8.23 -13.21,-18.929 -11.7,-27.031 1.52,-8.172 18.77,-13.012 20.64,-21.031 1.89,-8.09 -11.4,-20.071 -9.15,-28.008 2.26,-7.981 19.89,-11.203 22.5,-19.02 2.63,-7.863 -9.49,-21.043 -6.5,-28.742 3,-7.73 20.83,-9.289 24.17,-16.84 3.34,-7.578 -7.5,-21.828 -3.79,-29.218 3.69,-7.411 21.59,-7.313 25.61,-14.532 4.04,-7.23 -5.44,-22.418 -1.08,-29.429 4.36,-7.051 22.18,-5.289 26.86,-12.11 4.68,-6.832 -3.36,-22.832 1.64,-29.422 4.98,-6.597 22.57,-3.218 27.87,-9.578 5.27,-6.359 -1.27,-23.031 4.31,-29.14 5.58,-6.121 22.78,-1.129 28.64,-6.981 5.84,-5.859 0.86,-23.051 6.97,-28.629 6.11,-5.582 22.78,0.961 29.14,-4.332 6.37,-5.289 2.97,-22.867 9.59,-27.859 6.58,-4.988 22.58,3.051 29.4,-1.629 6.81,-4.691 5.07,-22.5 12.1,-26.859 7.03,-4.36 22.23,5.109 29.46,1.078 7.2,-4.028 7.11,-21.93 14.53,-25.629 7.38,-3.699 21.62,7.148 29.22,3.801 7.55,-3.34 9.11,-21.172 16.83,-24.172 7.7,-2.989 20.88,9.133 28.75,6.5 7.82,-2.617 11.03,-20.239 19.03,-22.5 7.93,-2.258 19.92,11.043 28,9.14 8.03,-1.879 12.86,-19.129 21.04,-20.64 8.09,-1.489 18.79,12.859 27.03,11.711 8.16,-1.121 14.57,-17.84 22.85,-18.602 8.2,-0.75 17.53,14.531 25.84,14.152 8.22,-0.378 16.13,-16.441 24.46,-16.441 8.32,0 16.23,16.063 24.45,16.441 8.31,0.379 17.65,-14.902 25.85,-14.152 8.28,0.762 14.7,17.481 22.85,18.602 8.23,1.148 18.93,-13.2 27.04,-11.711 8.15,1.511 13,18.761 21.02,20.64 8.08,1.903 20.07,-11.398 28.01,-9.14 7.98,2.261 11.2,19.871 19.02,22.492 7.86,2.641 21.03,-9.481 28.74,-6.492 7.72,3 9.28,20.832 16.84,24.172 7.58,3.339 21.82,-7.5 29.22,-3.801 7.41,3.691 7.32,21.601 14.53,25.629 7.23,4.031 22.43,-5.449 29.44,-1.09 7.04,4.359 5.29,22.18 12.1,26.851 6.82,4.688 22.82,-3.351 29.42,1.641 6.6,5 3.2,22.57 9.59,27.859 6.35,5.29 23.03,-1.242 29.14,4.329 6.11,5.57 1.13,22.769 6.97,28.621 5.86,5.851 23.05,0.871 28.64,6.98 5.56,6.121 -0.98,22.781 4.31,29.149 5.3,6.351 22.87,2.98 27.87,9.57 4.98,6.601 -3.05,22.601 1.62,29.43 4.69,6.812 22.5,5.062 26.88,12.101 4.36,7.02 -5.12,22.211 -1.09,29.442 4.02,7.218 21.93,7.117 25.64,14.527 3.67,7.402 -7.17,21.641 -3.81,29.223 3.34,7.546 21.17,9.109 24.17,16.839 3,7.7 -9.13,20.879 -6.49,28.739 2.61,7.828 20.22,11.039 22.5,19.019 2.24,7.949 -11.04,19.93 -9.15,28.02 1.87,8.019 19.11,12.859 20.63,21.019 1.51,8.114 -12.83,18.821 -11.7,27.043 1.14,8.168 17.84,14.578 18.61,22.848 0.75,8.199 -14.53,17.541 -14.15,25.841 0.37,8.24 16.43,16.15 16.43,24.46"
         style="fill:#2c2829;fill-opacity:1;fill-rule:nonzero;stroke:none"
         id="path112"
         inkscape:connector-curvature="0" /><path
         d="m 2931.46,617.59 c -229.4,0 -415.36,185.949 -415.36,415.34 0,229.39 185.96,415.35 415.36,415.35 229.39,0 415.35,-185.96 415.35,-415.35 0,-229.391 -185.96,-415.34 -415.35,-415.34 z m 0,867.65 c -249.81,0 -452.31,-202.5 -452.31,-452.31 0,-249.801 202.5,-452.301 452.31,-452.301 249.8,0 452.32,202.5 452.32,452.301 0,249.81 -202.52,452.31 -452.32,452.31"
         style="fill:#656263;fill-opacity:1;fill-rule:nonzero;stroke:none"
         id="path114"
         inkscape:connector-curvature="0" /><path
         d="m 2997.93,1032.93 c 0,-36.7 -29.76,-66.469 -66.47,-66.469 -36.71,0 -66.47,29.769 -66.47,66.469 0,36.71 29.76,66.47 66.47,66.47 36.71,0 66.47,-29.76 66.47,-66.47"
         style="fill:#918f90;fill-opacity:1;fill-rule:nonzero;stroke:none"
         id="path116"
         inkscape:connector-curvature="0" /><path
         d="m 2977.49,1030.61 c 0,-24.52 -19.88,-44.419 -44.4,-44.419 -24.54,0 -44.43,19.899 -44.43,44.419 0,24.53 19.89,44.42 44.43,44.42 24.52,0 44.4,-19.89 44.4,-44.42"
         style="fill:#bdbcbc;fill-opacity:1;fill-rule:nonzero;stroke:none"
         id="path118"
         inkscape:connector-curvature="0" /><path
         d="m 1749.07,1831 h -94.56 l -0.24,-0.02 164.27,-835.128 82.59,15.498 -152.06,819.65"
         style="fill:#3bbec5;fill-opacity:1;fill-rule:nonzero;stroke:none"
         id="path120"
         inkscape:connector-curvature="0" /><path
         d="m 2967.22,1030.55 -50.1,-18.02 -349.06,973.68 50.11,18.02 349.05,-973.68"
         style="fill:#3bbec5;fill-opacity:1;fill-rule:nonzero;stroke:none"
         id="path122"
         inkscape:connector-curvature="0" /><path
         d="m 1768.53,1661.95 c -3.95,16.74 -10.12,40.57 -22.49,56.39 l -537.32,-683.42 41.88,-32.91 518.12,659.04 -0.19,0.9"
         style="fill:#3bbec5;fill-opacity:1;fill-rule:nonzero;stroke:none"
         id="path124"
         inkscape:connector-curvature="0" /><path
         d="m 2699.01,1658.92 h -958.68 v 93.84 h 958.68 v -93.84"
         style="fill:#3bbec5;fill-opacity:1;fill-rule:nonzero;stroke:none"
         id="path126"
         inkscape:connector-curvature="0" /><path
         d="m 1864.54,1006.55 h -655.82 v 28.6 h 655.82 v -28.6"
         style="fill:#3bbec5;fill-opacity:1;fill-rule:nonzero;stroke:none"
         id="path128"
         inkscape:connector-curvature="0" /><path
         d="m 2746.53,1584.82 -874.37,-588.949 -29.47,43.769 874.37,588.95 29.47,-43.77"
         style="fill:#3bbec5;fill-opacity:1;fill-rule:nonzero;stroke:none"
         id="path130"
         inkscape:connector-curvature="0" /><path
         d="m 2000.75,1019.24 c 0,-75.228 -60.97,-136.22 -136.21,-136.22 -75.23,0 -136.21,60.992 -136.21,136.22 0,75.23 60.98,136.22 136.21,136.22 75.24,0 136.21,-60.99 136.21,-136.22"
         style="fill:#231f20;fill-opacity:1;fill-rule:nonzero;stroke:none"
         id="path132"
         inkscape:connector-curvature="0" /><path
         d="m 1973.92,1017.91 c 0,-60.41 -48.97,-109.39 -109.38,-109.39 -60.42,0 -109.38,48.98 -109.38,109.39 0,60.41 48.96,109.38 109.38,109.38 60.41,0 109.38,-48.97 109.38,-109.38"
         style="fill:#393536;fill-opacity:1;fill-rule:nonzero;stroke:none"
         id="path134"
         inkscape:connector-curvature="0" /><path
         d="m 1517.96,2006.07 c 0,0 -49.83,-17.65 -51.08,-65.33 0,0 0,-67.74 91.58,-53.94 l 280.12,28.21 c 7.19,0.72 17.1,20.81 18.84,26.19 5.23,16.21 -5.01,33.18 -19.68,39.69 -14.57,6.47 -30.73,2.63 -45.78,0.45 -15.88,-2.3 -31.89,-3.07 -47.93,-3.18 -35.99,-0.25 -72.99,-1.84 -108.1,7.43 -39.84,10.51 -75.39,32.13 -117.97,20.48"
         style="fill:#231f20;fill-opacity:1;fill-rule:nonzero;stroke:none"
         id="path136"
         inkscape:connector-curvature="0" /><path
         d="m 2700.87,1791.78 -64.84,-22.39 -74.36,215.33 64.86,22.4 74.34,-215.34"
         style="fill:#309aa1;fill-opacity:1;fill-rule:nonzero;stroke:none"
         id="path138"
         inkscape:connector-curvature="0" /><path
         d="m 2702.1,2019.81 -136.97,-44.9 -17.44,53.24 136.95,44.9 17.46,-53.24"
         style="fill:#393536;fill-opacity:1;fill-rule:nonzero;stroke:none"
         id="path140"
         inkscape:connector-curvature="0" /><path
         d="m 2757.71,2050.62 c 0,-24.03 -19.47,-43.5 -43.48,-43.5 -24.02,0 -43.51,19.47 -43.51,43.5 0,24.02 19.49,43.49 43.51,43.49 24.01,0 43.48,-19.47 43.48,-43.49"
         style="fill:#353132;fill-opacity:1;fill-rule:nonzero;stroke:none"
         id="path142"
         inkscape:connector-curvature="0" /><path
         d="m 2748.46,2050.62 c 0,-18.91 -15.33,-34.24 -34.23,-34.24 -18.92,0 -34.24,15.33 -34.24,34.24 0,18.9 15.32,34.23 34.24,34.23 18.9,0 34.23,-15.33 34.23,-34.23"
         style="fill:#292627;fill-opacity:1;fill-rule:nonzero;stroke:none"
         id="path144"
         inkscape:connector-curvature="0" /><path
         d="m 1914.64,1023.62 c 0,-27.679 -22.43,-50.108 -50.1,-50.108 -27.67,0 -50.12,22.429 -50.12,50.108 0,27.67 22.45,50.09 50.12,50.09 27.67,0 50.1,-22.42 50.1,-50.09"
         style="fill:#2c2829;fill-opacity:1;fill-rule:nonzero;stroke:none"
         id="path146"
         inkscape:connector-curvature="0" /><path
         d="m 1880.38,747.859 h -29.92 v 280.221 h 29.92 V 747.859"
         style="fill:#231f20;fill-opacity:1;fill-rule:nonzero;stroke:none"
         id="path148"
         inkscape:connector-curvature="0" /><path
         d="m 1952.41,727.191 c 0,-18.05 -14.63,-32.679 -32.66,-32.679 h -101.4 c -18.03,0 -32.67,14.629 -32.67,32.679 0,18.047 14.64,32.68 32.67,32.68 h 101.4 c 18.03,0 32.66,-14.633 32.66,-32.68"
         style="fill:#2c2829;fill-opacity:1;fill-rule:nonzero;stroke:none"
         id="path150"
         inkscape:connector-curvature="0" /><path
         d="m 1879.58,1021.49 c 0,-8.3 -6.74,-15.04 -15.04,-15.04 -8.3,0 -15.05,6.74 -15.05,15.04 0,8.3 6.75,15.03 15.05,15.03 8.3,0 15.04,-6.73 15.04,-15.03"
         style="fill:#656263;fill-opacity:1;fill-rule:nonzero;stroke:none"
         id="path152"
         inkscape:connector-curvature="0" /><path
         d="m 1876.71,1021.49 c 0,-6.73 -5.45,-12.17 -12.17,-12.17 -6.74,0 -12.18,5.44 -12.18,12.17 0,6.72 5.44,12.16 12.18,12.16 6.72,0 12.17,-5.44 12.17,-12.16"
         style="fill:#bdbcbc;fill-opacity:1;fill-rule:nonzero;stroke:none"
         id="path154"
         inkscape:connector-curvature="0" /><path
         d="m 1862.74,1021.49 c 0,4.86 2.86,9.04 6.98,10.99 -1.57,0.75 -3.34,1.17 -5.18,1.17 -6.74,0 -12.18,-5.44 -12.18,-12.16 0,-6.73 5.44,-12.17 12.18,-12.17 1.84,0 3.61,0.42 5.18,1.18 -4.12,1.94 -6.98,6.12 -6.98,10.99"
         style="fill:#a5a3a4;fill-opacity:1;fill-rule:nonzero;stroke:none"
         id="path156"
         inkscape:connector-curvature="0" /><path
         d="m 1874.96,1021.53 c 0,3.66 -1.81,6.87 -4.56,8.85 -2.76,-1.98 -4.57,-5.19 -4.57,-8.85 0,-3.65 1.81,-6.87 4.57,-8.85 2.75,1.98 4.56,5.2 4.56,8.85"
         style="fill:#f2f2f2;fill-opacity:1;fill-rule:nonzero;stroke:none"
         id="path158"
         inkscape:connector-curvature="0" /><path
         d="m 1866.55,1014.39 c 0,-1.11 -0.92,-2.01 -2.01,-2.01 -1.11,0 -2.01,0.9 -2.01,2.01 v 13.57 c 0,1.1 0.9,2 2.01,2 1.09,0 2.01,-0.9 2.01,-2 v -13.57"
         style="fill:#656263;fill-opacity:1;fill-rule:nonzero;stroke:none"
         id="path160"
         inkscape:connector-curvature="0" /><path
         d="m 1864.54,1014.04 v 13.56 l 1.29,1.86 -1.29,0.5 c -1.11,0 -2.01,-0.9 -2.01,-2 v -13.57 c 0,-1.11 0.9,-2.01 2.01,-2.01 l 0.72,0.14 -0.72,1.52"
         style="fill:#545051;fill-opacity:1;fill-rule:nonzero;stroke:none"
         id="path162"
         inkscape:connector-curvature="0" /><path
         d="m 1857.75,1019.16 c -1.12,0 -2.02,0.91 -2.02,2.01 0,1.12 0.9,2.02 2.02,2.02 h 13.57 c 1.1,0 2.01,-0.9 2.01,-2.02 0,-1.1 -0.91,-2.01 -2.01,-2.01 h -13.57"
         style="fill:#656263;fill-opacity:1;fill-rule:nonzero;stroke:none"
         id="path164"
         inkscape:connector-curvature="0" /><path
         d="m 1857.39,1021.16 h 13.58 l 1.85,-1.29 0.51,1.3 c 0,1.12 -0.91,2.02 -2.01,2.02 h -13.57 c -1.12,0 -2.02,-0.9 -2.02,-2.02 l 0.16,-0.72 1.5,0.71"
         style="fill:#545051;fill-opacity:1;fill-rule:nonzero;stroke:none"
         id="path166"
         inkscape:connector-curvature="0" /><path
         d="m 2945.19,1044.59 c 0,-8.31 -6.72,-15.05 -15.04,-15.05 -8.29,0 -15.02,6.74 -15.02,15.05 0,8.3 6.73,15.03 15.02,15.03 8.32,0 15.04,-6.73 15.04,-15.03"
         style="fill:#656263;fill-opacity:1;fill-rule:nonzero;stroke:none"
         id="path168"
         inkscape:connector-curvature="0" /><path
         d="m 2942.33,1044.59 c 0,-6.74 -5.45,-12.18 -12.18,-12.18 -6.71,0 -12.17,5.44 -12.17,12.18 0,6.72 5.46,12.17 12.17,12.17 6.73,0 12.18,-5.45 12.18,-12.17"
         style="fill:#bdbcbc;fill-opacity:1;fill-rule:nonzero;stroke:none"
         id="path170"
         inkscape:connector-curvature="0" /><path
         d="m 2928.37,1044.59 c 0,4.86 2.87,9.04 6.99,10.99 -1.59,0.75 -3.34,1.18 -5.21,1.18 -6.71,0 -12.17,-5.45 -12.17,-12.17 0,-6.74 5.46,-12.18 12.17,-12.18 1.87,0 3.62,0.43 5.21,1.17 -4.12,1.95 -6.99,6.14 -6.99,11.01"
         style="fill:#a5a3a4;fill-opacity:1;fill-rule:nonzero;stroke:none"
         id="path172"
         inkscape:connector-curvature="0" /><path
         d="m 2940.6,1044.63 c 0,3.65 -1.82,6.86 -4.57,8.85 -2.76,-1.99 -4.57,-5.2 -4.57,-8.85 0,-3.66 1.81,-6.87 4.57,-8.86 2.75,1.99 4.57,5.2 4.57,8.86"
         style="fill:#f2f2f2;fill-opacity:1;fill-rule:nonzero;stroke:none"
         id="path174"
         inkscape:connector-curvature="0" /><path
         d="m 2932.17,1037.48 c 0,-1.11 -0.9,-2.01 -2.02,-2.01 -1.1,0 -2,0.9 -2,2.01 v 13.57 c 0,1.11 0.9,2.01 2,2.01 1.12,0 2.02,-0.9 2.02,-2.01 v -13.57"
         style="fill:#656263;fill-opacity:1;fill-rule:nonzero;stroke:none"
         id="path176"
         inkscape:connector-curvature="0" /><path
         d="m 2930.15,1037.13 v 13.57 l 1.31,1.86 -1.31,0.5 c -1.1,0 -2,-0.9 -2,-2.01 v -13.57 c 0,-1.11 0.9,-2.01 2,-2.01 l 0.72,0.14 -0.72,1.52"
         style="fill:#545051;fill-opacity:1;fill-rule:nonzero;stroke:none"
         id="path178"
         inkscape:connector-curvature="0" /><path
         d="m 2923.37,1042.25 c -1.09,0 -2,0.91 -2,2.01 0,1.12 0.91,2.02 2,2.02 h 13.57 c 1.12,0 2.02,-0.9 2.02,-2.02 0,-1.1 -0.9,-2.01 -2.02,-2.01 h -13.57"
         style="fill:#656263;fill-opacity:1;fill-rule:nonzero;stroke:none"
         id="path180"
         inkscape:connector-curvature="0" /><path
         d="m 2923.03,1044.26 h 13.54 l 1.88,-1.29 0.51,1.29 c 0,1.12 -0.9,2.02 -2.02,2.02 h -13.57 c -1.09,0 -2,-0.9 -2,-2.02 l 0.14,-0.71 1.52,0.71"
         style="fill:#545051;fill-opacity:1;fill-rule:nonzero;stroke:none"
         id="path182"
         inkscape:connector-curvature="0" /><path
         d="m 1248.27,1028.08 c 0,-8.31 -6.76,-15.04 -15.05,-15.04 -8.31,0 -15.03,6.73 -15.03,15.04 0,8.3 6.72,15.03 15.03,15.03 8.29,0 15.05,-6.73 15.05,-15.03"
         style="fill:#656263;fill-opacity:1;fill-rule:nonzero;stroke:none"
         id="path184"
         inkscape:connector-curvature="0" /><path
         d="m 1245.38,1028.08 c 0,-6.73 -5.43,-12.17 -12.16,-12.17 -6.73,0 -12.17,5.44 -12.17,12.17 0,6.71 5.44,12.17 12.17,12.17 6.73,0 12.16,-5.46 12.16,-12.17"
         style="fill:#bdbcbc;fill-opacity:1;fill-rule:nonzero;stroke:none"
         id="path186"
         inkscape:connector-curvature="0" /><path
         d="m 1231.42,1028.08 c 0,4.86 2.89,9.05 7.01,11 -1.59,0.74 -3.34,1.17 -5.21,1.17 -6.73,0 -12.17,-5.46 -12.17,-12.17 0,-6.73 5.44,-12.17 12.17,-12.17 1.87,0 3.62,0.43 5.21,1.17 -4.12,1.95 -7.01,6.14 -7.01,11"
         style="fill:#a5a3a4;fill-opacity:1;fill-rule:nonzero;stroke:none"
         id="path188"
         inkscape:connector-curvature="0" /><path
         d="m 1243.64,1028.12 c 0,3.65 -1.81,6.87 -4.55,8.85 -2.75,-1.98 -4.57,-5.2 -4.57,-8.85 0,-3.66 1.82,-6.87 4.57,-8.85 2.74,1.98 4.55,5.19 4.55,8.85"
         style="fill:#f2f2f2;fill-opacity:1;fill-rule:nonzero;stroke:none"
         id="path190"
         inkscape:connector-curvature="0" /><path
         d="m 1235.23,1020.98 c 0,-1.11 -0.89,-2.01 -2.01,-2.01 -1.1,0 -2,0.9 -2,2.01 v 13.57 c 0,1.11 0.9,2.01 2,2.01 1.12,0 2.01,-0.9 2.01,-2.01 v -13.57"
         style="fill:#656263;fill-opacity:1;fill-rule:nonzero;stroke:none"
         id="path192"
         inkscape:connector-curvature="0" /><path
         d="m 1233.22,1020.62 v 13.57 l 1.3,1.87 -1.3,0.5 c -1.1,0 -2,-0.9 -2,-2.01 v -13.57 c 0,-1.11 0.9,-2.01 2,-2.01 l 0.72,0.14 -0.72,1.51"
         style="fill:#545051;fill-opacity:1;fill-rule:nonzero;stroke:none"
         id="path194"
         inkscape:connector-curvature="0" /><path
         d="m 1226.44,1025.75 c -1.1,0 -2.02,0.9 -2.02,2.01 0,1.11 0.92,2.02 2.02,2.02 h 13.57 c 1.11,0 2.01,-0.91 2.01,-2.02 0,-1.11 -0.9,-2.01 -2.01,-2.01 h -13.57"
         style="fill:#656263;fill-opacity:1;fill-rule:nonzero;stroke:none"
         id="path196"
         inkscape:connector-curvature="0" /><path
         d="m 1226.08,1027.76 h 13.58 l 1.85,-1.3 0.51,1.3 c 0,1.11 -0.9,2.02 -2.01,2.02 h -13.57 c -1.1,0 -2.02,-0.91 -2.02,-2.02 l 0.16,-0.72 1.5,0.72"
         style="fill:#545051;fill-opacity:1;fill-rule:nonzero;stroke:none"
         id="path198"
         inkscape:connector-curvature="0" /></g></g></svg>